# xmcd
#
# Track frame offsets: 
#        150
#        17768
#        33793
#        48391
#        62511
#        79668
#        94517
#        110146
#        126451
#        144576
#        164478
#        177378
#        192670
#        207235
#
# Disc length: 2973 seconds
#
# Revision: 0
# Processed by: cddbd v1.5.2PL0 Copyright (c) Steve Scherf et al.
# Submitted via: ExactAudioCopy v0.99pb4
#
DISCID=c60b9b0e
DTITLE=Edson and Hudson - Românticas com Edson and Hudson
DYEAR=2007
DGENRE=Sertanejo
TTITLE0=Porque Chora a Tarde
TTITLE1=Porta-Retrato
TTITLE2=Bye, Bye, Tristeza
TTITLE3=Azul
TTITLE4=Jura (Lluvia)
TTITLE5=Ciúme Exagerado
TTITLE6=Volta
TTITLE7=Mil Razões para Chorar
TTITLE8=Meu Anjo (Angel)
TTITLE9=Você é Tudo que eu Preciso (Un Amor que Termina)
TTITLE10=Te Dar Tristeza Nunca Mais (Can't Be Really Gone)
TTITLE11=Quer Namorar Comigo
TTITLE12=Te Quero pra Mim (It Matters To Me)
TTITLE13=Deixa Eu Te Amar
EXTD=
EXTT0=
EXTT1=
EXTT2=
EXTT3=
EXTT4=
EXTT5=
EXTT6=
EXTT7=
EXTT8=
EXTT9=
EXTT10=
EXTT11=
EXTT12=
EXTT13=
PLAYORDER=
